HIERARCHY
ROOT Hips
{
	OFFSET	0.0000	0.0000	0.0000
	CHANNELS 6 Xposition Yposition Zposition Xrotation Yrotation Zrotation
	JOINT Chest
	{
		OFFSET	0.0000	9.1238	-4.9373
		CHANNELS 3 Xrotation Yrotation Zrotation
		JOINT Chest2
		{
			OFFSET	0.0000	8.3261	0.4350
			CHANNELS 3 Xrotation Yrotation Zrotation
			JOINT Chest3
			{
				OFFSET	0.0000	10.3026	-2.2933
				CHANNELS 3 Xrotation Yrotation Zrotation
				JOINT Neck
				{
					OFFSET	0.0000	23.2167	-0.4828
					CHANNELS 3 Xrotation Yrotation Zrotation
					JOINT Head
					{
						OFFSET	-0.0001	13.1107	3.5661
						CHANNELS 3 Xrotation Yrotation Zrotation
						End Site
						{
							OFFSET	0.0001	18.3189	0.5469
						}
					}
				}
				JOINT LeftCollar
				{
					OFFSET	2.3439	22.4052	7.6762
					CHANNELS 3 Xrotation Yrotation Zrotation
					JOINT LeftShoulder
					{
						OFFSET	14.0163	-1.1751	-5.2001
						CHANNELS 3 Xrotation Yrotation Zrotation
						JOINT LeftElbow
						{
							OFFSET	-0.1031	-29.0876	-0.2521
							CHANNELS 3 Xrotation Yrotation Zrotation
							JOINT LeftWrist
							{
								OFFSET	0.0704	-24.2652	-0.1454
								CHANNELS 3 Xrotation Yrotation Zrotation
								JOINT LeftFinger1
								{
									OFFSET	0.8225	-9.4045	2.6121
									CHANNELS 3 Xrotation Yrotation Zrotation
									JOINT LeftFinger11
									{
										OFFSET	-0.8578	-3.5178	0.6198
										CHANNELS 3 Xrotation Yrotation Zrotation
										JOINT LeftFinger12
										{
											OFFSET	-0.5857	-2.4015	0.4233
											CHANNELS 3 Xrotation Yrotation Zrotation
											End Site
											{
												OFFSET	-0.5101	-1.7089	0.2772
											}
										}
									}
								}
								JOINT LeftFinger2
								{
									OFFSET	0.9498	-9.5449	0.2274
									CHANNELS 3 Xrotation Yrotation Zrotation
									JOINT LeftFinger21
									{
										OFFSET	0.0121	-4.3495	-0.0257
										CHANNELS 3 Xrotation Yrotation Zrotation
										JOINT LeftFinger22
										{
											OFFSET	0.0074	-2.4109	-0.0147
											CHANNELS 3 Xrotation Yrotation Zrotation
											End Site
											{
												OFFSET	-0.1529	-2.1655	0.0029
											}
										}
									}
								}
								JOINT LeftFinger3
								{
									OFFSET	0.6339	-9.0457	-2.1401
									CHANNELS 3 Xrotation Yrotation Zrotation
									JOINT LeftFinger31
									{
										OFFSET	-0.1998	-3.9467	-0.2471
										CHANNELS 3 Xrotation Yrotation Zrotation
										JOINT LeftFinger32
										{
											OFFSET	-0.1132	-2.2491	-0.1413
											CHANNELS 3 Xrotation Yrotation Zrotation
											End Site
											{
												OFFSET	-0.2445	-1.9885	-0.0940
											}
										}
									}
								}
								JOINT LeftFinger4
								{
									OFFSET	-0.6379	-8.3941	-3.6959
									CHANNELS 3 Xrotation Yrotation Zrotation
									JOINT LeftFinger41
									{
										OFFSET	-0.5063	-2.4276	-0.6701
										CHANNELS 3 Xrotation Yrotation Zrotation
										JOINT LeftFinger42
										{
											OFFSET	-0.3707	-1.7802	-0.4917
											CHANNELS 3 Xrotation Yrotation Zrotation
											End Site
											{
												OFFSET	-0.4341	-1.5800	-0.3625
											}
										}
									}
								}
								JOINT LeftFinger0
								{
									OFFSET	-1.4725	-1.9455	1.4749
									CHANNELS 3 Xrotation Yrotation Zrotation
									JOINT LeftFinger01
									{
										OFFSET	-1.1895	-3.6221	2.7308
										CHANNELS 3 Xrotation Yrotation Zrotation
										JOINT LeftFinger02
										{
											OFFSET	-0.8535	-2.3851	1.7184
											CHANNELS 3 Xrotation Yrotation Zrotation
											End Site
											{
												OFFSET	-0.6037	-1.7539	1.2010
											}
										}
									}
								}
							}
						}
					}
				}
				JOINT RightCollar
				{
					OFFSET	-2.3439	22.4052	7.6762
					CHANNELS 3 Xrotation Yrotation Zrotation
					JOINT RightShoulder
					{
						OFFSET	-14.0188	-1.1753	-5.2010
						CHANNELS 3 Xrotation Yrotation Zrotation
						JOINT RightElbow
						{
							OFFSET	0.1031	-29.0876	-0.2521
							CHANNELS 3 Xrotation Yrotation Zrotation
							JOINT RightWrist
							{
								OFFSET	-0.0704	-24.2652	-0.1454
								CHANNELS 3 Xrotation Yrotation Zrotation
								JOINT RightFinger1
								{
									OFFSET	-0.8226	-9.4046	2.6121
									CHANNELS 3 Xrotation Yrotation Zrotation
									JOINT RightFinger11
									{
										OFFSET	0.8578	-3.5178	0.6198
										CHANNELS 3 Xrotation Yrotation Zrotation
										JOINT RightFinger12
										{
											OFFSET	0.5859	-2.4014	0.4233
											CHANNELS 3 Xrotation Yrotation Zrotation
											End Site
											{
												OFFSET	0.5101	-1.7089	0.2772
											}
										}
									}
								}
								JOINT RightFinger2
								{
									OFFSET	-0.9499	-9.5449	0.2274
									CHANNELS 3 Xrotation Yrotation Zrotation
									JOINT RightFinger21
									{
										OFFSET	-0.0121	-4.3495	-0.0257
										CHANNELS 3 Xrotation Yrotation Zrotation
										JOINT RightFinger22
										{
											OFFSET	-0.0074	-2.4109	-0.0148
											CHANNELS 3 Xrotation Yrotation Zrotation
											End Site
											{
												OFFSET	0.1529	-2.1655	0.0029
											}
										}
									}
								}
								JOINT RightFinger3
								{
									OFFSET	-0.6339	-9.0457	-2.1401
									CHANNELS 3 Xrotation Yrotation Zrotation
									JOINT RightFinger31
									{
										OFFSET	0.1998	-3.9467	-0.2471
										CHANNELS 3 Xrotation Yrotation Zrotation
										JOINT RightFinger32
										{
											OFFSET	0.1132	-2.2491	-0.1413
											CHANNELS 3 Xrotation Yrotation Zrotation
											End Site
											{
												OFFSET	0.2445	-1.9886	-0.0940
											}
										}
									}
								}
								JOINT RightFinger4
								{
									OFFSET	0.6379	-8.3941	-3.6959
									CHANNELS 3 Xrotation Yrotation Zrotation
									JOINT RightFinger41
									{
										OFFSET	0.5062	-2.4276	-0.6701
										CHANNELS 3 Xrotation Yrotation Zrotation
										JOINT RightFinger42
										{
											OFFSET	0.3706	-1.7802	-0.4917
											CHANNELS 3 Xrotation Yrotation Zrotation
											End Site
											{
												OFFSET	0.4341	-1.5800	-0.3625
											}
										}
									}
								}
								JOINT RightFinger0
								{
									OFFSET	1.4724	-1.9455	1.4747
									CHANNELS 3 Xrotation Yrotation Zrotation
									JOINT RightFinger01
									{
										OFFSET	1.1897	-3.6221	2.7310
										CHANNELS 3 Xrotation Yrotation Zrotation
										JOINT RightFinger02
										{
											OFFSET	0.8534	-2.3851	1.7184
											CHANNELS 3 Xrotation Yrotation Zrotation
											End Site
											{
												OFFSET	0.6038	-1.7539	1.2010
											}
										}
									}
								}
							}
						}
					}
				}
			}
		}
	}
	JOINT RightHip
	{
		OFFSET	-9.7602	4.1242	-0.8045
		CHANNELS 3 Xrotation Yrotation Zrotation
		JOINT RightKnee
		{
			OFFSET	-0.7810	-42.4524	0.0000
			CHANNELS 3 Xrotation Yrotation Zrotation
			JOINT RightAnkle
			{
				OFFSET	0.0000	-41.6857	0.0000
				CHANNELS 3 Xrotation Yrotation Zrotation
				JOINT RightToe
				{
					OFFSET	0.0000	-4.5816	9.5808
					CHANNELS 3 Xrotation Yrotation Zrotation
					End Site
					{
						OFFSET	0.0000	0.0000	6.4274
					}
				}
			}
		}
	}
	JOINT LeftHip
	{
		OFFSET	9.7601	4.1245	-0.8045
		CHANNELS 3 Xrotation Yrotation Zrotation
		JOINT LeftKnee
		{
			OFFSET	0.7811	-42.4527	0.0000
			CHANNELS 3 Xrotation Yrotation Zrotation
			JOINT LeftAnkle
			{
				OFFSET	0.0000	-41.6857	0.0000
				CHANNELS 3 Xrotation Yrotation Zrotation
				JOINT LeftToe
				{
					OFFSET	0.0000	-4.5816	9.5808
					CHANNELS 3 Xrotation Yrotation Zrotation
					End Site
					{
						OFFSET	0.0000	0.0000	6.4274
					}
				}
			}
		}
	}
}
MOTION
Frames:	6
Frame Time: 0.0333333000
	7.5703	88.1312	57.8638	8.667974	-10.594940	1.288551	3.415583	2.354923	-0.869347	3.415584	2.354921	-0.869347	3.415583	2.354923	-0.869347	-1.720499	0.247460	-0.858171	-2.042175	0.012677	-0.267405	0.000004	0.000000	-9.826911	-4.764274	0.840503	35.478680	-44.347090	-0.400670	0.614135	-0.000001	0.000000	0.000003	0.000000	0.000000	-0.000002	-0.000001	0.000001	0.000002	-0.000002	0.000000	0.000002	0.000000	0.000000	-0.000002	-0.000001	0.000001	0.000002	-0.000002	0.000000	0.000002	0.000000	0.000000	-0.000002	-0.000001	0.000001	0.000002	-0.000002	0.000000	0.000002	0.000000	0.000000	-0.000002	-0.000001	0.000001	0.000002	-0.000002	0.000000	0.000002	0.000000	0.000000	-0.000002	-0.000001	0.000001	0.000002	-0.000002	0.000000	0.000002	0.000000	0.000000	7.849626	-10.027700	-1.181185	-47.456850	-51.276650	0.496235	-0.681306	0.000000	0.000000	0.000000	0.000000	0.000000	0.000000	0.000000	0.000000	0.000000	0.000000	0.000000	0.000000	0.000000	0.000000	0.000000	0.000000	0.000000	0.000000	0.000000	0.000000	0.000000	0.000000	0.000000	0.000000	0.000000	0.000000	0.000000	0.000000	0.000000	0.000000	0.000000	0.000000	0.000000	0.000000	0.000000	0.000000	0.000000	0.000000	0.000000	0.000000	0.000000	0.000000	0.000000	0.000000	0.000000	0.000000	0.000000	0.000000	-25.453430	-10.616620	-1.374164	28.677200	0.000003	-0.000001	-3.883271	1.368231	0.774969	-0.000003	0.000003	0.000000	-31.626050	29.811710	11.107480	35.668870	0.000003	0.000000	-3.891934	1.609151	0.773237	-0.000002	-0.000001	0.000000
	7.8289	87.5623	57.1154	9.740950	-10.405050	1.042020	3.631638	2.281601	-0.805724	3.631640	2.281601	-0.805725	3.631640	2.281601	-0.805725	-2.177779	0.206210	-0.705000	-2.683027	0.025830	-0.472783	0.000000	0.000000	-10.051710	-5.200521	1.044791	36.309840	-42.168730	-0.372620	0.590546	0.000000	0.000000	-0.000001	0.000000	0.000000	-0.000001	0.000000	0.000000	-0.000001	0.000000	0.000000	-0.000001	0.000000	0.000000	-0.000001	0.000000	0.000000	-0.000001	0.000000	0.000000	-0.000001	0.000000	0.000000	-0.000001	0.000000	0.000000	-0.000001	0.000000	0.000000	-0.000001	0.000000	0.000000	-0.000001	0.000000	0.000000	-0.000001	0.000000	0.000000	-0.000001	0.000000	0.000000	-0.000001	0.000000	0.000000	-0.000001	0.000000	0.000000	-0.000001	-0.000001	0.000000	8.042518	-10.056430	0.126280	-47.218820	-48.329990	0.451961	-0.658003	-0.000002	0.000000	0.000001	-0.000002	0.000000	0.000001	-0.000002	0.000000	0.000001	-0.000002	0.000000	0.000001	-0.000002	0.000000	0.000001	-0.000002	0.000000	0.000001	-0.000002	0.000000	0.000001	-0.000002	0.000000	0.000001	-0.000002	0.000000	0.000001	-0.000002	0.000000	0.000001	-0.000002	0.000000	0.000001	-0.000002	0.000000	0.000001	-0.000002	0.000000	0.000001	-0.000002	0.000000	0.000001	-0.000002	0.000000	0.000001	-0.000002	0.000000	0.000001	-27.690840	-10.586600	-1.169763	30.149840	0.000003	-0.000001	-4.931515	1.038000	0.607765	-0.000001	0.000000	0.000000	-32.615570	28.078080	12.116920	37.182040	0.000005	-0.000001	-5.444787	0.594606	0.292218	0.000001	0.000000	0.000000
	8.2272	87.1081	56.5174	10.839680	-10.161430	0.837498	3.838552	2.214668	-0.740036	3.838553	2.214667	-0.740036	3.838555	2.214669	-0.740036	-2.364218	0.188325	-0.639998	-3.630872	0.045073	-0.748770	-0.000001	0.000000	-10.257210	-5.538269	1.536933	37.265670	-40.265090	-0.348715	0.569274	0.000000	0.000001	0.000000	0.000000	0.000000	0.000000	0.000000	0.000000	0.000000	0.000000	0.000000	0.000000	0.000000	0.000000	0.000000	0.000000	0.000000	0.000000	0.000000	0.000000	0.000000	0.000000	0.000000	0.000000	0.000000	0.000000	0.000000	0.000000	0.000000	0.000000	0.000000	0.000000	0.000000	0.000000	0.000000	0.000000	0.000000	0.000000	0.000000	0.000000	0.000000	0.000000	0.000000	0.000000	0.000000	0.000000	0.000000	0.000000	-0.000003	0.000000	8.221105	-9.935727	1.142458	-46.898880	-46.360340	0.423807	-0.640153	-0.000001	0.000000	-0.000001	-0.000001	0.000000	-0.000001	-0.000001	0.000000	-0.000001	-0.000001	0.000000	-0.000001	-0.000001	0.000000	-0.000001	-0.000001	0.000000	-0.000001	-0.000001	0.000000	-0.000001	-0.000001	0.000000	-0.000001	-0.000001	0.000000	-0.000001	-0.000001	0.000000	-0.000001	-0.000001	0.000000	-0.000001	-0.000001	0.000000	-0.000001	-0.000001	0.000000	-0.000001	-0.000001	0.000000	-0.000001	-0.000001	0.000000	-0.000001	-0.000001	0.000000	-0.000001	-29.690190	-10.536110	-1.211455	31.370720	0.000002	0.000000	-5.446198	1.025282	0.612808	-0.000001	-0.000001	0.000000	-32.543380	25.729250	11.720160	36.646820	0.000002	0.000000	-5.240570	0.144551	-0.000738	0.000001	0.000002	0.000000
	8.7200	86.7483	56.0638	11.770570	-9.852769	0.651354	4.034961	2.154458	-0.673047	4.034961	2.154457	-0.673047	4.034960	2.154455	-0.673046	-2.547853	0.171368	-0.578959	-4.808451	0.077384	-1.090894	0.000001	0.000000	-10.443400	-5.846474	2.079849	38.218270	-38.997890	-0.333222	0.554705	0.000004	-0.000001	-0.000002	0.000000	0.000000	0.000000	0.000000	0.000000	0.000000	0.000000	0.000000	0.000000	0.000000	0.000000	0.000000	0.000000	0.000000	0.000000	0.000000	0.000000	0.000000	0.000000	0.000000	0.000000	0.000000	0.000000	0.000000	0.000000	0.000000	0.000000	0.000000	0.000000	0.000000	0.000000	0.000000	0.000000	0.000000	0.000000	0.000000	0.000000	0.000000	0.000000	0.000000	0.000000	0.000000	0.000000	0.000000	0.000000	-0.000001	-0.000001	8.386228	-9.747519	2.006368	-46.589280	-45.003630	0.406199	-0.625351	0.000000	0.000001	-0.000001	0.000000	0.000001	-0.000001	0.000000	0.000001	-0.000001	0.000000	0.000001	-0.000001	0.000000	0.000001	-0.000001	0.000000	0.000001	-0.000001	0.000000	0.000001	-0.000001	0.000000	0.000001	-0.000001	0.000000	0.000001	-0.000001	0.000000	0.000001	-0.000001	0.000000	0.000001	-0.000001	0.000000	0.000001	-0.000001	0.000000	0.000001	-0.000001	0.000000	0.000001	-0.000001	0.000000	0.000001	-0.000001	0.000000	0.000001	-0.000001	-31.324920	-10.485610	-1.415978	32.299240	0.000002	-0.000001	-5.737496	1.242477	0.736261	-0.000001	0.000001	0.000000	-32.655720	24.726380	11.214300	35.547620	0.000004	0.000000	-3.693319	-0.157715	-0.149719	0.000000	-0.000001	0.000000
	9.2704	86.5180	55.7356	12.463420	-9.524727	0.560568	4.219661	2.101145	-0.605618	4.219658	2.101143	-0.605618	4.219663	2.101143	-0.605618	-2.634332	0.161683	-0.544730	-6.532994	0.129537	-1.471146	-0.000001	0.000000	-10.610460	-6.089142	2.549579	38.965990	-38.511110	-0.326473	0.550065	-0.000002	0.000000	0.000000	0.000001	0.000000	0.000000	0.000001	0.000000	0.000000	0.000001	0.000000	0.000000	0.000001	0.000000	0.000000	0.000001	0.000000	0.000000	0.000001	0.000000	0.000000	0.000001	0.000000	0.000000	0.000001	0.000000	0.000000	0.000001	0.000000	0.000000	0.000001	0.000000	0.000000	0.000001	0.000000	0.000000	0.000001	0.000000	0.000000	0.000001	0.000000	0.000000	0.000001	0.000000	0.000000	0.000001	0.000000	0.000000	0.000001	-0.000001	8.538898	-9.566951	2.764524	-46.418250	-44.098890	0.395552	-0.613957	0.000002	-0.000002	0.000001	0.000000	-0.000001	0.000001	0.000000	-0.000001	0.000001	0.000000	-0.000001	0.000001	0.000000	-0.000001	0.000001	0.000000	-0.000001	0.000001	0.000000	-0.000001	0.000001	0.000000	-0.000001	0.000001	0.000000	-0.000001	0.000001	0.000000	-0.000001	0.000001	0.000000	-0.000001	0.000001	0.000000	-0.000001	0.000001	0.000000	-0.000001	0.000001	0.000000	-0.000001	0.000001	0.000000	-0.000001	0.000001	0.000000	-0.000001	0.000001	-32.582280	-10.429190	-1.754172	32.873830	0.000000	-0.000001	-5.754489	1.412098	0.815697	-0.000001	-0.000001	0.000000	-32.577190	23.949980	10.408810	34.371280	0.000004	-0.000001	-3.192253	-0.338416	-0.240636	-0.000001	0.000000	0.000000
	9.9049	86.3566	55.5003	13.006750	-9.162560	0.545981	4.391622	2.054741	-0.538687	4.391622	2.054742	-0.538687	4.391626	2.054741	-0.538688	-2.572343	0.166591	-0.562388	-8.284395	0.180176	-1.756675	-0.000001	-0.000001	-10.758740	-6.193894	2.852590	39.267530	-38.883560	-0.328557	0.557232	-0.000001	0.000000	0.000000	0.000000	0.000000	0.000000	0.000000	0.000000	0.000000	0.000000	0.000000	0.000000	0.000000	0.000000	0.000000	0.000000	0.000000	0.000000	0.000000	0.000000	0.000000	0.000000	0.000000	0.000000	0.000000	0.000000	0.000000	0.000000	0.000000	0.000000	0.000000	0.000000	0.000000	0.000000	0.000000	0.000000	0.000000	0.000000	0.000000	0.000000	0.000000	0.000000	0.000000	0.000000	0.000000	0.000000	0.000000	0.000000	-0.000003	-0.000001	8.680264	-9.412129	3.363453	-46.495090	-43.670350	0.389796	-0.609409	0.000000	-0.000001	0.000001	0.000000	-0.000001	0.000001	0.000000	-0.000001	0.000001	0.000000	-0.000001	0.000001	0.000000	-0.000001	0.000001	0.000000	-0.000001	0.000001	0.000000	-0.000001	0.000001	0.000000	-0.000001	0.000001	0.000000	-0.000001	0.000001	0.000000	-0.000001	0.000001	0.000000	-0.000001	0.000001	0.000000	-0.000001	0.000001	0.000000	-0.000001	0.000001	0.000000	-0.000001	0.000001	0.000000	-0.000001	0.000001	0.000000	-0.000001	0.000001	-33.535250	-10.364620	-2.231934	33.166350	0.000001	0.000000	-5.735887	1.450273	0.832494	0.000000	0.000000	0.000000	-32.625920	23.242930	9.544647	33.828340	0.000004	-0.000001	-3.710501	-0.027749	-0.082668	-0.000001	-0.000001	0.000000
